<svg id="Layer_1" data-name="Layer 1" xmlns="http://www.w3.org/2000/svg" width="7in" height="3in" viewBox="0 0 504 216">
  <defs>
    <style>
      .cls-1, .cls-6 {
        fill: none;
        stroke: #999;
      }

      .cls-1, .cls-5, .cls-6, .cls-7 {
        stroke-miterlimit: 10;
      }

      .cls-1 {
        stroke-width: 0.4px;
      }

      .cls-2 {
        font-size: 66.9px;
        font-family: Roboto-Regular, Roboto;
      }

      .cls-2, .cls-5, .cls-7 {
        fill: #4f0748;
      }

      .cls-3 {
        letter-spacing: 0.01em;
      }

      .cls-4 {
        font-size: 19.12px;
        fill: #999;
        font-family: Roboto-Light, Roboto;
      }

      .cls-5, .cls-7 {
        stroke: #4f0748;
      }

      .cls-5 {
        stroke-width: 0.45px;
      }

      .cls-6, .cls-7 {
        stroke-width: 0.25px;
      }
    </style>
  </defs>
  <title>synapse_logo</title>
  <line class="cls-1" x1="45.81" y1="105.45" x2="88.51" y2="102.72"/>
  <line class="cls-1" x1="57" y1="77" x2="45.81" y2="105.45"/>
  <line class="cls-1" x1="57" y1="77" x2="69" y2="70"/>
  <line class="cls-1" x1="69" y1="70" x2="75.85" y2="92.89"/>
  <line class="cls-1" x1="72" y1="131" x2="97" y2="141"/>
  <line class="cls-1" x1="110.63" y1="123.2" x2="97" y2="141"/>
  <line class="cls-1" x1="59.83" y1="99.99" x2="75.85" y2="92.89"/>
  <line class="cls-1" x1="72.12" y1="131.39" x2="77.58" y2="142.32"/>
  <line class="cls-1" x1="143.12" y1="165.53" x2="119.91" y2="169.62"/>
  <line class="cls-1" x1="129.47" y1="161.43" x2="119.91" y2="169.62"/>
  <line class="cls-1" x1="91.01" y1="121.84" x2="72.12" y2="131.39"/>
  <line class="cls-1" x1="58.56" y1="148.87" x2="77.58" y2="142.32"/>
  <line class="cls-1" x1="77.58" y1="142.32" x2="83.04" y2="155.97"/>
  <line class="cls-1" x1="83.04" y1="155.97" x2="108.99" y2="145.05"/>
  <line class="cls-1" x1="96.7" y1="140.95" x2="95.33" y2="165.53"/>
  <line class="cls-1" x1="108.99" y1="145.05" x2="96.7" y2="140.95"/>
  <line class="cls-1" x1="96.7" y1="140.95" x2="91.01" y2="121.84"/>
  <line class="cls-1" x1="110.63" y1="123.2" x2="91.01" y2="121.84"/>
  <line class="cls-1" x1="96.7" y1="140.95" x2="77.58" y2="142.32"/>
  <line class="cls-1" x1="102.31" y1="109.93" x2="108.99" y2="145.05"/>
  <line class="cls-1" x1="91.01" y1="121.84" x2="83.04" y2="155.97"/>
  <line class="cls-1" x1="54.37" y1="131.39" x2="77.58" y2="142.32"/>
  <line class="cls-1" x1="72.12" y1="131.39" x2="58.56" y2="148.87"/>
  <line class="cls-1" x1="96.7" y1="140.95" x2="111.72" y2="162.8"/>
  <line class="cls-1" x1="143.12" y1="165.53" x2="129.47" y2="161.43"/>
  <line class="cls-1" x1="129.47" y1="161.43" x2="111.72" y2="162.8"/>
  <line class="cls-1" x1="111.72" y1="162.8" x2="83.04" y2="155.97"/>
  <line class="cls-1" x1="95.33" y1="165.53" x2="119.91" y2="169.62"/>
  <line class="cls-1" x1="111.72" y1="162.8" x2="119.91" y2="169.62"/>
  <line class="cls-1" x1="108.99" y1="145.05" x2="95.33" y2="165.53"/>
  <line class="cls-1" x1="95.33" y1="165.53" x2="83.04" y2="155.97"/>
  <line class="cls-1" x1="58.56" y1="148.87" x2="83.04" y2="155.97"/>
  <line class="cls-1" x1="108.99" y1="145.05" x2="110.63" y2="123.2"/>
  <line class="cls-1" x1="102.31" y1="109.93" x2="110.63" y2="123.2"/>
  <line class="cls-1" x1="58.56" y1="148.87" x2="54.37" y2="131.39"/>
  <line class="cls-1" x1="102.31" y1="109.93" x2="91.01" y2="121.84"/>
  <line class="cls-1" x1="54.37" y1="131.39" x2="72.12" y2="131.39"/>
  <line class="cls-1" x1="69.39" y1="69.95" x2="57.1" y2="67.22"/>
  <text class="cls-2" transform="translate(135.13 139.42)">SY<tspan class="cls-3" x="82.55" y="0">N</tspan><tspan x="130.87" y="0">APSE</tspan></text>
  <text class="cls-4" transform="translate(137.86 75.45)">The</text>
  <circle class="cls-5" cx="96.7" cy="140.95" r="1.37"/>
  <circle class="cls-5" cx="58.56" cy="148.87" r="1.37"/>
  <circle class="cls-5" cx="102.31" cy="109.93" r="1.37"/>
  <circle class="cls-5" cx="91.01" cy="121.84" r="1.37"/>
  <circle class="cls-5" cx="83.04" cy="155.97" r="1.37"/>
  <circle class="cls-5" cx="77.58" cy="142.32" r="1.37"/>
  <circle class="cls-5" cx="72.12" cy="131.39" r="1.37"/>
  <circle class="cls-5" cx="54.37" cy="131.39" r="1.37"/>
  <circle class="cls-5" cx="110.63" cy="123.2" r="1.37"/>
  <circle class="cls-5" cx="108.99" cy="145.05" r="1.37"/>
  <circle class="cls-5" cx="119.91" cy="169.62" r="1.37"/>
  <circle class="cls-5" cx="129.47" cy="161.43" r="1.37"/>
  <circle class="cls-5" cx="111.72" cy="162.8" r="1.37"/>
  <circle class="cls-5" cx="95.33" cy="165.53" r="1.37"/>
  <circle class="cls-5" cx="143.12" cy="165.53" r="1.37"/>
  <line class="cls-1" x1="85.77" y1="54.93" x2="68.02" y2="53.57"/>
  <line class="cls-1" x1="99.43" y1="45.38" x2="68.02" y2="53.57"/>
  <line class="cls-1" x1="85.77" y1="54.93" x2="99.43" y2="45.38"/>
  <line class="cls-1" x1="95.33" y1="91.8" x2="88.51" y2="102.72"/>
  <line class="cls-1" x1="51.64" y1="116.37" x2="70.76" y2="113.64"/>
  <line class="cls-1" x1="88.51" y1="102.72" x2="70.76" y2="113.64"/>
  <line class="cls-1" x1="51.64" y1="116.37" x2="45.81" y2="105.45"/>
  <line class="cls-1" x1="85.77" y1="54.93" x2="57.1" y2="67.22"/>
  <line class="cls-1" x1="68.02" y1="53.57" x2="69.39" y2="69.95"/>
  <line class="cls-1" x1="45.81" y1="105.45" x2="47.91" y2="87.7"/>
  <line class="cls-1" x1="84.41" y1="80.88" x2="95.33" y2="91.8"/>
  <line class="cls-1" x1="69.39" y1="69.95" x2="59.83" y2="99.99"/>
  <line class="cls-1" x1="57" y1="77" x2="84.41" y2="80.88"/>
  <line class="cls-6" x1="57.1" y1="67.22" x2="57" y2="77"/>
  <line class="cls-1" x1="47.91" y1="87.7" x2="84.41" y2="80.88"/>
  <line class="cls-1" x1="75.85" y1="92.89" x2="88.51" y2="102.72"/>
  <line class="cls-1" x1="84.41" y1="80.88" x2="70.76" y2="113.64"/>
  <line class="cls-1" x1="60" y1="100" x2="57" y2="77"/>
  <line class="cls-1" x1="45.81" y1="105.45" x2="59.83" y2="99.99"/>
  <line class="cls-1" x1="70.76" y1="113.64" x2="59.83" y2="99.99"/>
  <line class="cls-1" x1="51.64" y1="116.37" x2="75.85" y2="92.89"/>
  <line class="cls-1" x1="57" y1="77" x2="47.91" y2="87.7"/>
  <line class="cls-1" x1="75.85" y1="92.89" x2="95.33" y2="91.8"/>
  <line class="cls-1" x1="75.85" y1="92.89" x2="47.91" y2="87.7"/>
  <circle class="cls-5" cx="85.77" cy="54.93" r="1.37"/>
  <circle class="cls-5" cx="84.41" cy="80.88" r="1.37"/>
  <circle class="cls-5" cx="57" cy="77" r="1.37"/>
  <circle class="cls-5" cx="69.39" cy="69.95" r="1.37"/>
  <circle class="cls-5" cx="99.43" cy="45.38" r="1.37"/>
  <circle class="cls-5" cx="57.1" cy="67.22" r="1.37"/>
  <circle class="cls-5" cx="68.02" cy="53.57" r="1.37"/>
  <circle class="cls-5" cx="47.91" cy="87.7" r="1.37"/>
  <circle class="cls-5" cx="75.85" cy="92.89" r="1.37"/>
  <circle class="cls-5" cx="95.33" cy="91.8" r="1.37"/>
  <circle class="cls-5" cx="88.51" cy="102.72" r="1.37"/>
  <circle class="cls-7" cx="45.81" cy="105.45" r="1.37"/>
  <circle class="cls-5" cx="51.64" cy="116.37" r="1.37"/>
  <circle class="cls-5" cx="70.76" cy="113.64" r="1.37"/>
  <circle class="cls-5" cx="59.83" cy="99.99" r="1.37"/>
</svg>
