<svg id="Layer_1" data-name="Layer 1" xmlns="http://www.w3.org/2000/svg" width="386.88" height="128.16" viewBox="0 0 386.88 128.16">
  <defs>
    <style>
      .cls-1, .cls-6 {
        fill: none;
        stroke: #999;
      }

      .cls-1, .cls-5, .cls-6, .cls-7 {
        stroke-miterlimit: 10;
      }

      .cls-1 {
        stroke-width: 0.4px;
      }

      .cls-2 {
        isolation: isolate;
      }

      .cls-3, .cls-5, .cls-7 {
        fill: #4f0748;
      }

      .cls-4 {
        fill: #999;
      }

      .cls-5, .cls-7 {
        stroke: #4f0748;
      }

      .cls-5 {
        stroke-width: 0.45px;
      }

      .cls-6, .cls-7 {
        stroke-width: 0.25px;
      }
    </style>
  </defs>
  <title>synapse01</title>
  <line class="cls-1" x1="1.5" y1="59.43" x2="44.27" y2="58.44"/>
  <line class="cls-1" x1="13.83" y1="31.46" x2="1.5" y2="59.43"/>
  <line class="cls-1" x1="13.83" y1="31.46" x2="26.11" y2="24.96"/>
  <line class="cls-1" x1="26.11" y1="24.96" x2="32.02" y2="48.11"/>
  <line class="cls-1" x1="26.62" y1="86.03" x2="51.2" y2="97.04"/>
  <line class="cls-1" x1="65.54" y1="79.81" x2="51.2" y2="97.04"/>
  <line class="cls-1" x1="15.73" y1="54.55" x2="32.02" y2="48.11"/>
  <line class="cls-1" x1="26.73" y1="86.42" x2="31.74" y2="97.57"/>
  <line class="cls-1" x1="96.28" y1="123.42" x2="72.92" y2="126.57"/>
  <line class="cls-1" x1="82.81" y1="118.77" x2="72.92" y2="126.57"/>
  <line class="cls-1" x1="45.99" y1="77.65" x2="26.73" y2="86.42"/>
  <line class="cls-1" x1="12.47" y1="103.34" x2="31.74" y2="97.57"/>
  <line class="cls-1" x1="31.74" y1="97.57" x2="36.64" y2="111.43"/>
  <line class="cls-1" x1="36.64" y1="111.43" x2="63.01" y2="101.57"/>
  <line class="cls-1" x1="50.9" y1="96.97" x2="48.53" y2="121.48"/>
  <line class="cls-1" x1="63.01" y1="101.57" x2="50.9" y2="96.97"/>
  <line class="cls-1" x1="50.9" y1="96.97" x2="45.99" y2="77.65"/>
  <line class="cls-1" x1="65.54" y1="79.81" x2="45.99" y2="77.65"/>
  <line class="cls-1" x1="50.9" y1="96.97" x2="31.74" y2="97.57"/>
  <line class="cls-1" x1="57.77" y1="66.21" x2="63.01" y2="101.57"/>
  <line class="cls-1" x1="45.99" y1="77.65" x2="36.64" y2="111.43"/>
  <line class="cls-1" x1="8.99" y1="85.7" x2="31.74" y2="97.57"/>
  <line class="cls-1" x1="26.73" y1="86.42" x2="12.47" y2="103.34"/>
  <line class="cls-1" x1="50.9" y1="96.97" x2="65.02" y2="119.42"/>
  <line class="cls-1" x1="96.28" y1="123.42" x2="82.81" y2="118.77"/>
  <line class="cls-1" x1="82.81" y1="118.77" x2="65.02" y2="119.42"/>
  <line class="cls-1" x1="65.02" y1="119.42" x2="36.64" y2="111.43"/>
  <line class="cls-1" x1="48.53" y1="121.48" x2="72.92" y2="126.57"/>
  <line class="cls-1" x1="65.02" y1="119.42" x2="72.92" y2="126.57"/>
  <line class="cls-1" x1="63.01" y1="101.57" x2="48.53" y2="121.48"/>
  <line class="cls-1" x1="48.53" y1="121.48" x2="36.64" y2="111.43"/>
  <line class="cls-1" x1="12.47" y1="103.34" x2="36.64" y2="111.43"/>
  <line class="cls-1" x1="63.01" y1="101.57" x2="65.54" y2="79.81"/>
  <line class="cls-1" x1="57.77" y1="66.21" x2="65.54" y2="79.81"/>
  <line class="cls-1" x1="12.47" y1="103.34" x2="8.99" y2="85.7"/>
  <line class="cls-1" x1="57.77" y1="66.21" x2="45.99" y2="77.65"/>
  <line class="cls-1" x1="8.99" y1="85.7" x2="26.73" y2="86.42"/>
  <line class="cls-1" x1="26.5" y1="24.92" x2="14.33" y2="21.69"/>
  <g class="cls-2">
    <g class="cls-2">
      <path class="cls-3" d="M166.91,122.44a7,7,0,0,0-2.45-5.44q-2.44-2.19-8.69-3.68-7.54-1.8-11.77-5.31a11,11,0,0,1-4.23-8.81,11.52,11.52,0,0,1,4.56-9.29q4.54-3.73,11.8-3.74,7.81,0,12.43,4.28a12.59,12.59,0,0,1,4.46,9.93l-.06.2h-6.14a8.82,8.82,0,0,0-2.76-6.76c-1.84-1.72-4.49-2.58-7.93-2.58q-4.8,0-7.36,2.17a7.08,7.08,0,0,0-2.57,5.67,6.25,6.25,0,0,0,2.78,5.17q2.78,2.09,9,3.65c5,1.24,8.82,3.07,11.43,5.48a11.76,11.76,0,0,1,3.92,9,11,11,0,0,1-4.7,9.24q-4.71,3.49-12.29,3.5a21.27,21.27,0,0,1-12.59-3.87,11.68,11.68,0,0,1-5.31-10.34l.07-.2h6.14a8,8,0,0,0,3.36,7,14.05,14.05,0,0,0,8.33,2.38,13,13,0,0,0,7.71-2A6.49,6.49,0,0,0,166.91,122.44Z" transform="translate(-44.44 -49.04)"/>
      <path class="cls-3" d="M197.26,111l12.41-24.17H217L200.33,117.7v16.72h-6.4V117.27L177.5,86.86h7.35Z" transform="translate(-44.44 -49.04)"/>
    </g>
    <g class="cls-2">
      <path class="cls-3" d="M259.53,134.42h-6.44l-22.9-36.78-.19.06v36.72h-6.44V86.86H230l22.89,36.72.2-.07V86.86h6.44Z" transform="translate(-44.44 -49.04)"/>
    </g>
    <g class="cls-2">
      <path class="cls-3" d="M297.65,122.17H277.73l-4.51,12.25h-6.57L285,86.86h5.52l18.1,47.56H302.1Zm-17.93-5.39h16l-7.84-21.66h-.2Z" transform="translate(-44.44 -49.04)"/>
      <path class="cls-3" d="M321.63,115.34v19.08H315.2V86.86h18.19c5.07,0,9,1.31,11.82,3.92a13.43,13.43,0,0,1,4.22,10.32,13.4,13.4,0,0,1-4.22,10.37c-2.8,2.58-6.75,3.87-11.82,3.87Zm0-5.06h11.76q4.83,0,7.22-2.59a9.29,9.29,0,0,0,2.38-6.54,9.43,9.43,0,0,0-2.4-6.59q-2.4-2.64-7.2-2.64H321.63Z" transform="translate(-44.44 -49.04)"/>
      <path class="cls-3" d="M384,122.44a7,7,0,0,0-2.45-5.44q-2.46-2.19-8.69-3.68-7.54-1.8-11.78-5.31a11,11,0,0,1-4.23-8.81,11.52,11.52,0,0,1,4.56-9.29q4.56-3.73,11.81-3.74,7.8,0,12.43,4.28a12.65,12.65,0,0,1,4.46,9.93l-.07.2h-6.14a8.82,8.82,0,0,0-2.76-6.76q-2.76-2.58-7.92-2.58-4.8,0-7.37,2.17a7.08,7.08,0,0,0-2.56,5.67,6.23,6.23,0,0,0,2.77,5.17q2.78,2.09,9,3.65,7.51,1.86,11.43,5.48a11.73,11.73,0,0,1,3.92,9,11,11,0,0,1-4.7,9.24q-4.71,3.49-12.28,3.5a21.28,21.28,0,0,1-12.6-3.87,11.72,11.72,0,0,1-5.31-10.34l.07-.2h6.14a8,8,0,0,0,3.37,7,14,14,0,0,0,8.33,2.38,13,13,0,0,0,7.71-2A6.51,6.51,0,0,0,384,122.44Z" transform="translate(-44.44 -49.04)"/>
      <path class="cls-3" d="M428,112.37H406.2v17h25.12v5.06H399.77V86.86H431v5.06H406.2v15.39H428Z" transform="translate(-44.44 -49.04)"/>
    </g>
  </g>
  <g class="cls-2">
    <path class="cls-4" d="M149,63.81h-4.67V76.45h-1.12V63.81h-4.68v-1H149Z" transform="translate(-44.44 -49.04)"/>
    <path class="cls-4" d="M152.05,68.08a3.64,3.64,0,0,1,1.34-1.41,3.72,3.72,0,0,1,2-.51,3.07,3.07,0,0,1,2.46,1,4.61,4.61,0,0,1,.85,3.07v6.23h-1.12V70.19a3.49,3.49,0,0,0-.65-2.36,2.28,2.28,0,0,0-1.79-.72,3.06,3.06,0,0,0-1.92.61,3.47,3.47,0,0,0-1.13,1.6v7.13h-1.12V61.89h1.12Z" transform="translate(-44.44 -49.04)"/>
    <path class="cls-4" d="M165.36,76.65a4.07,4.07,0,0,1-3.15-1.4A5.12,5.12,0,0,1,161,71.7v-.52a5.26,5.26,0,0,1,1.24-3.59,3.88,3.88,0,0,1,3-1.43,3.7,3.7,0,0,1,2.92,1.18,4.49,4.49,0,0,1,1.07,3.14v1h-7.13v.27a4.5,4.5,0,0,0,.9,2.85,2.9,2.9,0,0,0,2.38,1.14,4.8,4.8,0,0,0,1.79-.29,3.51,3.51,0,0,0,1.26-.83l.47.77a4,4,0,0,1-1.44,1A5.42,5.42,0,0,1,165.36,76.65Zm-.14-9.54a2.67,2.67,0,0,0-2.08,1,4,4,0,0,0-1,2.37l0,0h5.92V70.2a3.2,3.2,0,0,0-.78-2.2A2.63,2.63,0,0,0,165.22,67.11Z" transform="translate(-44.44 -49.04)"/>
  </g>
  <circle class="cls-5" cx="50.9" cy="96.97" r="1.37"/>
  <circle class="cls-5" cx="12.47" cy="103.34" r="1.37"/>
  <circle class="cls-5" cx="57.77" cy="66.21" r="1.37"/>
  <circle class="cls-5" cx="45.99" cy="77.65" r="1.37"/>
  <circle class="cls-5" cx="36.64" cy="111.43" r="1.37"/>
  <circle class="cls-5" cx="31.74" cy="97.57" r="1.37"/>
  <circle class="cls-5" cx="71.17" cy="135.46" r="1.37" transform="translate(-111.52 152.02) rotate(-87.67)"/>
  <circle class="cls-5" cx="8.99" cy="85.7" r="1.37"/>
  <circle class="cls-5" cx="65.54" cy="79.81" r="1.37"/>
  <circle class="cls-5" cx="63.01" cy="101.57" r="1.37"/>
  <circle class="cls-5" cx="72.92" cy="126.57" r="1.37"/>
  <circle class="cls-5" cx="82.81" cy="118.77" r="1.37"/>
  <circle class="cls-5" cx="109.46" cy="168.46" r="1.37" transform="translate(-107.75 221.93) rotate(-87.67)"/>
  <circle class="cls-5" cx="48.53" cy="121.48" r="1.37"/>
  <circle class="cls-5" cx="96.28" cy="123.42" r="1.37"/>
  <line class="cls-1" x1="43.48" y1="10.58" x2="25.8" y2="8.5"/>
  <line class="cls-1" x1="57.51" y1="1.6" x2="25.8" y2="8.5"/>
  <line class="cls-1" x1="43.48" y1="10.58" x2="57.51" y2="1.6"/>
  <line class="cls-1" x1="51.53" y1="47.81" x2="44.27" y2="58.44"/>
  <line class="cls-1" x1="6.88" y1="70.58" x2="26.09" y2="68.63"/>
  <line class="cls-1" x1="44.27" y1="58.44" x2="26.09" y2="68.63"/>
  <line class="cls-1" x1="6.88" y1="70.58" x2="1.5" y2="59.43"/>
  <line class="cls-1" x1="43.48" y1="10.58" x2="14.33" y2="21.69"/>
  <line class="cls-1" x1="25.8" y1="8.5" x2="26.5" y2="24.92"/>
  <line class="cls-1" x1="1.5" y1="59.43" x2="4.32" y2="41.78"/>
  <line class="cls-1" x1="41.06" y1="36.45" x2="51.53" y2="47.81"/>
  <line class="cls-1" x1="26.5" y1="24.92" x2="15.73" y2="54.55"/>
  <line class="cls-1" x1="13.83" y1="31.46" x2="41.06" y2="36.45"/>
  <line class="cls-6" x1="14.33" y1="21.69" x2="13.83" y2="31.46"/>
  <line class="cls-1" x1="4.32" y1="41.78" x2="41.06" y2="36.45"/>
  <line class="cls-1" x1="32.02" y1="48.11" x2="44.27" y2="58.44"/>
  <line class="cls-1" x1="41.06" y1="36.45" x2="26.09" y2="68.63"/>
  <line class="cls-1" x1="15.89" y1="54.57" x2="13.83" y2="31.46"/>
  <line class="cls-1" x1="1.5" y1="59.43" x2="15.73" y2="54.55"/>
  <line class="cls-1" x1="26.09" y1="68.63" x2="15.73" y2="54.55"/>
  <line class="cls-1" x1="6.88" y1="70.58" x2="32.02" y2="48.11"/>
  <line class="cls-1" x1="13.83" y1="31.46" x2="4.32" y2="41.78"/>
  <line class="cls-1" x1="32.02" y1="48.11" x2="51.53" y2="47.81"/>
  <line class="cls-1" x1="32.02" y1="48.11" x2="4.32" y2="41.78"/>
  <circle class="cls-5" cx="43.48" cy="10.58" r="1.37"/>
  <circle class="cls-5" cx="41.06" cy="36.45" r="1.37"/>
  <circle class="cls-5" cx="13.83" cy="31.46" r="1.37"/>
  <circle class="cls-5" cx="26.5" cy="24.92" r="1.37"/>
  <circle class="cls-5" cx="57.51" cy="1.6" r="1.37"/>
  <circle class="cls-5" cx="14.33" cy="21.69" r="1.37"/>
  <circle class="cls-5" cx="25.8" cy="8.5" r="1.37"/>
  <circle class="cls-5" cx="4.32" cy="41.78" r="1.37"/>
  <circle class="cls-5" cx="32.02" cy="48.11" r="1.37"/>
  <circle class="cls-5" cx="51.53" cy="47.81" r="1.37"/>
  <circle class="cls-5" cx="44.27" cy="58.44" r="1.37"/>
  <circle class="cls-7" cx="1.5" cy="59.43" r="1.37"/>
  <circle class="cls-5" cx="6.88" cy="70.58" r="1.37"/>
  <circle class="cls-5" cx="26.09" cy="68.63" r="1.37"/>
  <circle class="cls-5" cx="15.73" cy="54.55" r="1.37"/>
  <g>
    <path class="cls-4" d="M145.22,150.49h-4.86l-1.09,2.79h-.91l4-10h.83l4,10h-.91Zm-4.57-.73h4.29l-2.12-5.42h0Z" transform="translate(-44.44 -49.04)"/>
    <path class="cls-4" d="M155,149.77a4.13,4.13,0,0,1-.8,2.66,2.7,2.7,0,0,1-2.21,1,3.34,3.34,0,0,1-1.46-.3,2.67,2.67,0,0,1-1-.84v3.85h-.88V145.85h.74l.11,1.15a2.66,2.66,0,0,1,1-.95,3,3,0,0,1,1.46-.34,2.65,2.65,0,0,1,2.23,1.07,4.66,4.66,0,0,1,.8,2.85Zm-.88-.15a4.18,4.18,0,0,0-.59-2.32,2,2,0,0,0-1.75-.89,2.38,2.38,0,0,0-1.44.4,2.42,2.42,0,0,0-.82,1v3.58a2.29,2.29,0,0,0,.86,1,2.59,2.59,0,0,0,1.41.35,2,2,0,0,0,1.74-.81,3.53,3.53,0,0,0,.59-2.15Z" transform="translate(-44.44 -49.04)"/>
    <path class="cls-4" d="M160.54,146.55l-.65,0a2,2,0,0,0-1.35.44,2.33,2.33,0,0,0-.76,1.2v5.13h-.87v-7.43h.76l.11,1.23v.09a2.79,2.79,0,0,1,.92-1.08,2.45,2.45,0,0,1,1.37-.38l.32,0,.26.06Z" transform="translate(-44.44 -49.04)"/>
    <path class="cls-4" d="M163,143.72h-.86v-1.16H163Zm0,9.56h-.86v-7.43H163Z" transform="translate(-44.44 -49.04)"/>
    <path class="cls-4" d="M166.35,153.28h-.87V142.56h.87Z" transform="translate(-44.44 -49.04)"/>
    <path class="cls-4" d="M178.83,153.28h-6.59v-.64l3.47-3.71a9.3,9.3,0,0,0,1.36-1.71,2.61,2.61,0,0,0,.4-1.33,2,2,0,0,0-.56-1.49,2.09,2.09,0,0,0-1.57-.57,2.45,2.45,0,0,0-1.84.64,2.28,2.28,0,0,0-.63,1.69h-.81v0a2.69,2.69,0,0,1,.86-2.12,3.35,3.35,0,0,1,2.43-.87,3.13,3.13,0,0,1,2.19.75,2.52,2.52,0,0,1,.82,2,3,3,0,0,1-.55,1.67,13.08,13.08,0,0,1-1.53,1.89l-2.92,3.12v0h5.47Z" transform="translate(-44.44 -49.04)"/>
    <path class="cls-4" d="M185.86,150.06h1.66v.7h-1.66v2.52H185v-2.52h-5v-.47l4.89-7h1Zm-4.81,0H185v-5.7l0,0-.37.75Z" transform="translate(-44.44 -49.04)"/>
  </g>
</svg>
